<?xml version="1.0" standalone="no"?>
<!DOCTYPE svg PUBLIC "-//W3C//DTD SVG 20010904//EN"
 "http://www.w3.org/TR/2001/REC-SVG-20010904/DTD/svg10.dtd">
<svg version="1.0" xmlns="http://www.w3.org/2000/svg"
 width="1024.000000pt" height="1024.000000pt" viewBox="0 0 1024.000000 1024.000000"
 preserveAspectRatio="xMidYMid meet">
<metadata>
Created by potrace 1.11, written by Peter Selinger 2001-2013
</metadata>
<g transform="translate(0.000000,1024.000000) scale(0.100000,-0.100000)"
fill="#000000" stroke="none">
<path d="M4855 10233 c-394 -26 -679 -71 -1020 -158 -1295 -331 -2412 -1169
-3115 -2335 -83 -138 -254 -475 -314 -620 -161 -385 -269 -757 -335 -1155 -19
-117 -23 -146 -36 -270 -4 -33 -9 -71 -11 -85 -24 -154 -24 -766 0 -970 2 -14
7 -56 11 -95 4 -38 8 -77 10 -85 1 -8 6 -40 9 -70 4 -30 11 -77 16 -105 5 -27
12 -66 15 -85 3 -19 22 -106 41 -194 54 -241 111 -432 219 -726 34 -95 135
-321 203 -455 276 -547 649 -1040 1108 -1465 79 -74 256 -224 320 -271 32 -24
61 -46 64 -49 11 -13 182 -132 291 -203 351 -231 772 -433 1191 -571 237 -78
556 -156 783 -191 113 -17 352 -45 445 -51 205 -15 757 -8 858 10 9 2 46 7 82
11 98 10 201 24 305 41 66 11 276 57 389 85 636 160 1269 465 1808 871 325
245 606 515 892 858 127 153 329 446 452 655 389 662 622 1424 681 2226 14
199 7 727 -12 842 -2 12 -9 67 -15 122 -35 308 -117 677 -222 990 -212 637
-535 1207 -982 1730 -586 685 -1383 1220 -2251 1510 -373 125 -793 212 -1150
240 -44 4 -91 9 -105 11 -27 6 -560 11 -625 7z"/>
</g>
</svg>
